<?xml version="1.0" encoding="UTF-8" standalone="no"?>
<!-- Created with Inkscape (http://www.inkscape.org/) -->

<svg
   width="111.27679mm"
   height="43.822445mm"
   viewBox="0 0 111.27679 43.822445"
   version="1.1"
   id="svg5"
   inkscape:version="1.1.2 (0a00cf5339, 2022-02-04, custom)"
   sodipodi:docname="GameOver.svg"
   xmlns:inkscape="http://www.inkscape.org/namespaces/inkscape"
   xmlns:sodipodi="http://sodipodi.sourceforge.net/DTD/sodipodi-0.dtd"
   xmlns:xlink="http://www.w3.org/1999/xlink"
   xmlns="http://www.w3.org/2000/svg"
   xmlns:svg="http://www.w3.org/2000/svg">
  <sodipodi:namedview
     id="namedview7"
     pagecolor="#ffffff"
     bordercolor="#666666"
     borderopacity="1.0"
     inkscape:pageshadow="2"
     inkscape:pageopacity="0.0"
     inkscape:pagecheckerboard="0"
     inkscape:document-units="mm"
     showgrid="false"
     fit-margin-top="0"
     fit-margin-left="0"
     fit-margin-right="0"
     fit-margin-bottom="0"
     inkscape:zoom="0.64765011"
     inkscape:cx="174.47692"
     inkscape:cy="242.41484"
     inkscape:window-width="1920"
     inkscape:window-height="1035"
     inkscape:window-x="0"
     inkscape:window-y="0"
     inkscape:window-maximized="1"
     inkscape:current-layer="layer1" />
  <defs
     id="defs2">
    <linearGradient
       inkscape:collect="always"
       id="linearGradient4486">
      <stop
         style="stop-color:#000000;stop-opacity:1;"
         offset="0"
         id="stop4482" />
      <stop
         style="stop-color:#fc0000;stop-opacity:0.96757597"
         offset="1"
         id="stop4484" />
    </linearGradient>
    <linearGradient
       inkscape:collect="always"
       xlink:href="#linearGradient4486"
       id="linearGradient4488"
       x1="187.07225"
       y1="72.361397"
       x2="186.87943"
       y2="49.920219"
       gradientUnits="userSpaceOnUse" />
  </defs>
  <g
     inkscape:label="Layer 1"
     inkscape:groupmode="layer"
     id="layer1"
     transform="translate(-59.022129,-84.30755)">
    <g
       aria-label="GAME OVER"
       transform="scale(0.57735027,1.7320508)"
       id="text848"
       style="font-size:36.5781px;line-height:1.25;letter-spacing:-3.54809px;fill:url(#linearGradient4488);stroke-width:0.914457">
      <path
         d="m 126.06878,48.674987 h -0.69152 q -0.50955,0.764318 -0.83711,0.982695 -0.32757,0.181981 -0.76432,0.181981 -0.40036,0 -1.20107,-0.327565 -2.18377,-0.837111 -4.6951,-0.837111 -3.53043,0 -6.69689,1.528637 -2.36575,1.164676 -4.29474,3.09367 -1.96539,2.001786 -3.31205,4.804287 -1.34665,2.766105 -1.34665,5.968964 0,1.747013 0.61873,3.530423 0.65513,1.78341 1.96539,3.239255 1.31026,1.455844 3.34844,2.329351 2.03819,0.873507 4.94988,0.800715 1.63782,0 3.13006,-0.327565 0.72792,-0.181981 1.71062,-0.509546 1.01909,-0.363961 2.25656,-0.873507 l 1.78341,-6.150944 q 0.65513,-2.256559 0.98269,-2.766105 0.43676,-0.727922 1.05549,-1.055487 0.61874,-0.327565 2.03818,-0.327565 l 0.18198,-0.727923 h -10.11812 l -0.18198,0.727923 h 0.50955 q 1.63782,0 2.43854,0.545942 0.47315,0.327565 0.47315,0.982695 0,0.727922 -0.40036,2.038182 l -1.78341,6.223737 q -0.80071,0.291168 -1.41945,0.473149 -0.58234,0.181981 -0.98269,0.254773 -0.69153,0.145584 -1.67422,0.145584 -3.60322,0 -5.35023,-2.43854 -1.71062,-2.511332 -1.71062,-5.896171 0,-5.095456 2.8025,-9.244614 3.53042,-5.204644 9.06263,-5.204644 2.76611,0 4.25835,1.346656 1.52864,1.383052 1.52864,3.09367 0,0.327565 -0.0364,0.837111 -0.0364,0.509545 -0.10919,1.164675 h 0.65513 z"
         style="font-family:TSCu_Times;-inkscape-font-specification:'TSCu_Times, Normal'"
         id="path4660" />
      <path
         d="M 141.55583,48.674987 H 140.9007 L 126.48784,68.32889 q -1.05549,1.346657 -1.78341,2.25656 -0.72792,0.909903 -1.23747,1.31026 -0.98269,0.837111 -2.29295,0.873507 l -0.21838,0.65513 h 7.13364 l 0.18198,-0.65513 q -1.05549,-0.0364 -1.52864,-0.436754 -0.47315,-0.436753 -0.47315,-0.982695 0,-0.436753 0.21838,-0.909903 0.21838,-0.509545 1.05549,-1.637825 l 2.47493,-3.348443 h 6.91527 l -0.29117,3.057274 q -0.0728,1.019091 -0.18198,1.674221 -0.10919,0.655131 -0.18198,0.9463 -0.25478,0.764318 -0.80072,1.128279 -0.72792,0.509546 -1.92899,0.509546 h -0.40036 l -0.18198,0.65513 h 9.57218 l 0.18198,-0.65513 q -1.38305,0 -1.96539,-0.254773 -0.58234,-0.254773 -0.9463,-0.764318 -0.25477,-0.363962 -0.25477,-1.091884 0,-0.218377 0.0364,-0.691526 0.0364,-0.47315 0.10919,-1.164676 z m -3.56682,5.896171 -0.9099,9.608575 h -6.07815 z"
         style="font-family:TSCu_Times;-inkscape-font-specification:'TSCu_Times, Normal'"
         id="path4662" />
      <path
         d="m 153.11211,49.220929 h -6.04175 l -0.18198,0.65513 q 1.45584,0.109188 1.96539,0.327565 0.47315,0.18198 1.12828,0.837111 l -5.27744,18.016078 q -0.58234,2.147371 -1.16468,2.838897 -0.83711,0.873507 -2.51133,0.873507 h -0.47315 l -0.21837,0.65513 h 7.97074 l 0.18199,-0.65513 q -0.9463,-0.0364 -1.49225,-0.145585 -0.54594,-0.145584 -0.83711,-0.327565 -0.29116,-0.18198 -0.40035,-0.436753 -0.0728,-0.254773 -0.0728,-0.582338 0,-0.618734 0.54595,-2.584124 l 4.29474,-14.995201 2.29295,19.726696 h 0.72793 l 14.12169,-19.726696 -4.03997,14.048902 q -0.76432,2.729708 -1.20107,3.566819 -0.43675,0.800715 -0.9827,1.055488 -0.72792,0.400357 -2.11097,0.400357 h -0.47315 l -0.18198,0.65513 h 10.22731 l 0.14558,-0.65513 h -0.40036 q -1.41944,0 -2.18376,-0.509546 -0.47315,-0.363961 -0.47315,-1.055487 0,-0.691526 0.40036,-2.147371 l 4.47672,-15.359162 q 0.29117,-0.982695 0.54594,-1.601429 0.25477,-0.65513 0.50955,-1.055487 0.29116,-0.400358 0.54594,-0.582338 0.25477,-0.218377 0.54594,-0.327565 0.29117,-0.145585 2.29295,-0.254773 v -0.65513 h -5.93256 l -14.0489,19.471923 z"
         style="font-family:TSCu_Times;-inkscape-font-specification:'TSCu_Times, Normal'"
         id="path4664" />
      <path
         d="m 183.63077,50.531189 h 3.05727 q 2.98448,0 3.96718,0.291169 1.12828,0.436753 1.74701,1.273864 0.47315,0.582338 0.47315,1.565033 0,0.291169 -0.0364,0.65513 -0.0364,0.327565 -0.10918,0.727922 h 0.65513 l 1.49224,-5.823378 h -17.36095 l -0.21838,0.65513 h 0.36396 q 1.38306,0 1.85621,0.400357 0.47315,0.363961 0.47315,1.055487 0,0.837111 -0.50955,2.656917 l -4.25835,14.631239 q -0.65513,2.329352 -1.16467,3.09367 -0.25477,0.436754 -1.01909,0.800715 -0.43676,0.181981 -1.81981,0.254773 l -0.21838,0.65513 h 18.63482 l 2.32935,-6.733282 h -0.65513 q -1.74702,3.020878 -3.7852,4.294742 -2.03818,1.237468 -5.605,1.237468 h -2.11098 q -1.23746,0 -1.52863,-0.254773 -0.43676,-0.363961 -0.43676,-0.83711 0,-0.582338 0.32757,-1.78341 l 2.32935,-8.007146 h 2.32935 q 1.74702,0 2.29296,0.218377 1.16467,0.473149 1.16467,1.96539 0,0.764318 -0.32756,1.856202 h 0.72792 l 2.47494,-8.771464 h -0.65513 q -0.83711,2.038182 -1.8926,2.729708 -1.12828,0.727923 -3.49403,0.727923 h -2.29295 z"
         style="font-family:TSCu_Times;-inkscape-font-specification:'TSCu_Times, Normal'"
         id="path4666" />
      <path
         d="m 223.99517,48.674987 q -2.8753,0 -5.45942,1.201072 -2.54773,1.164676 -4.84069,3.384839 -2.29295,2.329351 -3.89438,5.568606 -1.63783,3.312046 -1.63783,6.696885 0,1.928995 0.87351,3.930781 0.9463,2.038183 2.8025,3.275651 1.8562,1.201072 4.6951,1.201072 3.93078,0 7.4976,-2.220164 3.71241,-2.292955 5.93257,-6.514905 2.29295,-4.331138 2.29295,-8.15273 0,-2.220163 -1.09188,-4.258346 -1.05549,-2.074579 -2.91169,-3.09367 -1.8198,-1.019091 -4.25834,-1.019091 z m -0.61874,1.12828 q 2.65692,0 3.93078,1.856202 1.31026,1.856202 1.31026,4.294741 0,3.348443 -1.45584,7.097243 -1.41945,3.821593 -3.56682,6.223737 -1.67422,2.001786 -3.23926,2.802501 -1.52863,0.764318 -3.16646,0.764318 -2.72971,0 -4.03997,-1.928994 -1.27386,-2.038183 -1.27386,-4.513119 0,-3.530423 1.63782,-7.570392 0.9827,-2.43854 2.14738,-4.185554 1.20107,-1.747013 2.51133,-2.802501 1.31026,-1.055487 2.62052,-1.528637 1.31026,-0.509545 2.58412,-0.509545 z"
         style="font-family:TSCu_Times;-inkscape-font-specification:'TSCu_Times, Normal'"
         id="path4668" />
      <path
         d="m 236.87707,73.933893 h 0.61873 l 13.64855,-18.489228 q 2.18377,-2.948086 3.05727,-3.821593 0.9827,-0.909903 1.96539,-1.419448 0.47315,-0.254773 1.41945,-0.327565 l 0.18198,-0.65513 h -7.27922 l -0.21838,0.65513 q 1.12828,0.07279 1.52864,0.436753 0.40036,0.327565 0.40036,0.837111 0,0.436753 -0.25478,0.946299 -0.18198,0.400357 -0.69152,1.12828 -0.47315,0.727922 -1.23747,1.783409 l -9.46299,12.884226 1.41945,-14.449259 q 0.0728,-0.909903 0.18198,-1.455844 0.10919,-0.582338 0.21837,-0.764319 0.18198,-0.363961 0.36397,-0.618734 0.21837,-0.254773 0.54594,-0.400357 0.36396,-0.181981 0.8735,-0.254773 0.50955,-0.07279 1.27387,-0.07279 l 0.18198,-0.65513 h -9.53578 l -0.18199,0.65513 h 0.65514 q 1.27386,0 1.8562,0.545942 0.58233,0.509545 0.58233,1.31026 0,0.545942 -0.10918,2.074578 z"
         style="font-family:TSCu_Times;-inkscape-font-specification:'TSCu_Times, Normal'"
         id="path4670" />
      <path
         d="m 266.08549,50.531189 h 3.05728 q 2.98448,0 3.96717,0.291169 1.12828,0.436753 1.74702,1.273864 0.47315,0.582338 0.47315,1.565033 0,0.291169 -0.0364,0.65513 -0.0364,0.327565 -0.10919,0.727922 h 0.65513 l 1.49224,-5.823378 h -17.36094 l -0.21838,0.65513 h 0.36396 q 1.38305,0 1.8562,0.400357 0.47315,0.363961 0.47315,1.055487 0,0.837111 -0.50954,2.656917 l -4.25835,14.631239 q -0.65513,2.329352 -1.16467,3.09367 -0.25478,0.436754 -1.0191,0.800715 -0.43675,0.181981 -1.8198,0.254773 l -0.21838,0.65513 h 18.63481 l 2.32936,-6.733282 h -0.65513 q -1.74702,3.020878 -3.7852,4.294742 -2.03818,1.237468 -5.605,1.237468 h -2.11098 q -1.23747,0 -1.52864,-0.254773 -0.43675,-0.363961 -0.43675,-0.83711 0,-0.582338 0.32757,-1.78341 l 2.32935,-8.007146 h 2.32935 q 1.74701,0 2.29296,0.218377 1.16467,0.473149 1.16467,1.96539 0,0.764318 -0.32756,1.856202 h 0.72792 l 2.47493,-8.771464 h -0.65513 q -0.83711,2.038182 -1.89259,2.729708 -1.12828,0.727923 -3.49403,0.727923 h -2.29296 z"
         style="font-family:TSCu_Times;-inkscape-font-specification:'TSCu_Times, Normal'"
         id="path4672" />
      <path
         d="m 288.99741,73.424347 h 5.78699 l 0.18198,-0.65513 q -1.8926,-0.109189 -2.76611,-0.873507 -0.9099,-0.873507 -1.71062,-3.421235 l -2.36574,-7.097243 q 3.05727,-0.47315 4.94987,-2.43854 1.78341,-1.892598 1.78341,-4.294742 0,-2.43854 -1.78341,-3.930781 -1.74701,-1.49224 -5.6778,-1.49224 h -7.89795 l -0.21838,0.65513 q 1.23747,-0.0364 1.8926,0.545942 0.69152,0.582337 0.69152,1.383052 0,0.800715 -0.43675,2.256559 l -4.25834,14.63124 q -0.58234,2.110974 -1.16468,2.984481 -0.40036,0.509546 -1.09188,0.837111 -0.21838,0.07279 -0.65513,0.145584 -0.43676,0.07279 -1.09189,0.109189 l -0.18198,0.65513 h 9.31741 l 0.18198,-0.65513 q -1.78341,-0.181981 -2.14737,-0.47315 -0.50955,-0.400357 -0.50955,-1.164675 0,-0.909903 0.40036,-2.43854 l 2.07458,-7.31562 q 0.72792,0.145584 1.41945,0.218377 0.69152,0.07279 1.41945,0.0364 z m -6.36932,-13.066206 2.8753,-9.717764 q 0.69152,-0.145584 1.34665,-0.145584 2.22017,0 3.31205,1.055487 1.12828,1.055488 1.12828,3.020878 0,2.584124 -1.78341,4.258346 -1.78341,1.674221 -4.87708,1.674221 -0.43675,0 -0.9463,-0.0364 -0.47315,-0.0364 -1.05549,-0.109188 z"
         style="font-family:TSCu_Times;-inkscape-font-specification:'TSCu_Times, Normal'"
         id="path4674" />
    </g>
  </g>
</svg>
